<mxfile host="app.diagrams.net" modified="2023-03-10T00:58:13.040Z" agent="5.0 (Windows NT 10.0; Win64; x64) AppleWebKit/537.36 (KHTML, like Gecko) Chrome/110.0.0.0 Safari/537.36" etag="9vklypk26T94w7cD4EeA" version="20.1.1" type="github">
  <diagram id="dLjoHP1Bg1KUrIK5QTc2" name="第 1 页">
    <mxGraphModel dx="1265" dy="720" grid="1" gridSize="10" guides="1" tooltips="1" connect="1" arrows="1" fold="1" page="1" pageScale="1" pageWidth="827" pageHeight="1169" math="0" shadow="0">
      <root>
        <mxCell id="0" />
        <mxCell id="1" parent="0" />
        <mxCell id="NTy6RzFA_RDiQi6eTn6Z-1" value="A、B、C、D" style="ellipse;whiteSpace=wrap;html=1;aspect=fixed;" vertex="1" parent="1">
          <mxGeometry x="250" y="231" width="120" height="120" as="geometry" />
        </mxCell>
        <mxCell id="NTy6RzFA_RDiQi6eTn6Z-2" value="视联网下&lt;br&gt;企业大账号下的车牌库" style="text;html=1;align=center;verticalAlign=middle;resizable=0;points=[];autosize=1;strokeColor=none;fillColor=none;" vertex="1" parent="1">
          <mxGeometry x="240" y="215" width="140" height="40" as="geometry" />
        </mxCell>
        <mxCell id="NTy6RzFA_RDiQi6eTn6Z-5" value="小区1：A" style="ellipse;whiteSpace=wrap;html=1;" vertex="1" parent="1">
          <mxGeometry x="550" y="130" width="120" height="80" as="geometry" />
        </mxCell>
        <mxCell id="NTy6RzFA_RDiQi6eTn6Z-6" value="小区2：B" style="ellipse;whiteSpace=wrap;html=1;" vertex="1" parent="1">
          <mxGeometry x="230" y="640" width="120" height="80" as="geometry" />
        </mxCell>
        <mxCell id="NTy6RzFA_RDiQi6eTn6Z-7" value="小区3：C" style="ellipse;whiteSpace=wrap;html=1;" vertex="1" parent="1">
          <mxGeometry x="550" y="410" width="120" height="80" as="geometry" />
        </mxCell>
        <mxCell id="NTy6RzFA_RDiQi6eTn6Z-9" value="" style="shape=flexArrow;endArrow=classic;html=1;rounded=0;" edge="1" parent="1">
          <mxGeometry width="50" height="50" relative="1" as="geometry">
            <mxPoint x="499" y="198" as="sourcePoint" />
            <mxPoint x="400" y="280" as="targetPoint" />
          </mxGeometry>
        </mxCell>
        <mxCell id="NTy6RzFA_RDiQi6eTn6Z-10" value="" style="shape=flexArrow;endArrow=classic;html=1;rounded=0;" edge="1" parent="1">
          <mxGeometry width="50" height="50" relative="1" as="geometry">
            <mxPoint x="510" y="309.5" as="sourcePoint" />
            <mxPoint x="390" y="320" as="targetPoint" />
          </mxGeometry>
        </mxCell>
        <mxCell id="NTy6RzFA_RDiQi6eTn6Z-11" value="" style="shape=flexArrow;endArrow=classic;html=1;rounded=0;" edge="1" parent="1">
          <mxGeometry width="50" height="50" relative="1" as="geometry">
            <mxPoint x="489" y="420" as="sourcePoint" />
            <mxPoint x="380" y="360" as="targetPoint" />
          </mxGeometry>
        </mxCell>
        <mxCell id="NTy6RzFA_RDiQi6eTn6Z-13" value="设备：全量抓拍" style="rounded=0;whiteSpace=wrap;html=1;" vertex="1" parent="1">
          <mxGeometry x="30" y="310" width="120" height="60" as="geometry" />
        </mxCell>
        <mxCell id="NTy6RzFA_RDiQi6eTn6Z-14" value="" style="shape=flexArrow;endArrow=classic;html=1;rounded=0;" edge="1" parent="1">
          <mxGeometry width="50" height="50" relative="1" as="geometry">
            <mxPoint x="180" y="341" as="sourcePoint" />
            <mxPoint x="240" y="341" as="targetPoint" />
          </mxGeometry>
        </mxCell>
        <mxCell id="NTy6RzFA_RDiQi6eTn6Z-15" value="" style="shape=flexArrow;endArrow=classic;html=1;rounded=0;width=10;endSize=7.92;" edge="1" parent="1">
          <mxGeometry width="50" height="50" relative="1" as="geometry">
            <mxPoint x="309" y="398" as="sourcePoint" />
            <mxPoint x="309" y="495" as="targetPoint" />
          </mxGeometry>
        </mxCell>
        <mxCell id="NTy6RzFA_RDiQi6eTn6Z-16" value="判断A、B、C、D牌属于哪个小区，再推送到相关小区" style="text;html=1;align=center;verticalAlign=middle;resizable=0;points=[];autosize=1;strokeColor=none;fillColor=none;" vertex="1" parent="1">
          <mxGeometry x="135" y="505" width="310" height="30" as="geometry" />
        </mxCell>
        <mxCell id="NTy6RzFA_RDiQi6eTn6Z-17" value="小区1：A" style="ellipse;whiteSpace=wrap;html=1;" vertex="1" parent="1">
          <mxGeometry x="15" y="640" width="120" height="80" as="geometry" />
        </mxCell>
        <mxCell id="NTy6RzFA_RDiQi6eTn6Z-18" value="小区2：B" style="ellipse;whiteSpace=wrap;html=1;" vertex="1" parent="1">
          <mxGeometry x="560" y="280" width="120" height="80" as="geometry" />
        </mxCell>
        <mxCell id="NTy6RzFA_RDiQi6eTn6Z-19" value="小区3：C" style="ellipse;whiteSpace=wrap;html=1;" vertex="1" parent="1">
          <mxGeometry x="420" y="650" width="120" height="80" as="geometry" />
        </mxCell>
        <mxCell id="NTy6RzFA_RDiQi6eTn6Z-20" value="" style="shape=flexArrow;endArrow=classic;html=1;rounded=0;" edge="1" parent="1">
          <mxGeometry width="50" height="50" relative="1" as="geometry">
            <mxPoint x="200" y="550" as="sourcePoint" />
            <mxPoint x="50" y="630" as="targetPoint" />
          </mxGeometry>
        </mxCell>
        <mxCell id="NTy6RzFA_RDiQi6eTn6Z-21" value="" style="shape=flexArrow;endArrow=classic;html=1;rounded=0;" edge="1" parent="1">
          <mxGeometry width="50" height="50" relative="1" as="geometry">
            <mxPoint x="300" y="550" as="sourcePoint" />
            <mxPoint x="290" y="630" as="targetPoint" />
          </mxGeometry>
        </mxCell>
        <mxCell id="NTy6RzFA_RDiQi6eTn6Z-22" value="" style="shape=flexArrow;endArrow=classic;html=1;rounded=0;" edge="1" parent="1">
          <mxGeometry width="50" height="50" relative="1" as="geometry">
            <mxPoint x="410" y="540" as="sourcePoint" />
            <mxPoint x="470" y="630" as="targetPoint" />
          </mxGeometry>
        </mxCell>
      </root>
    </mxGraphModel>
  </diagram>
</mxfile>
